<svg id="Layer_1" data-name="Layer 1" xmlns="http://www.w3.org/2000/svg" xmlns:xlink="http://www.w3.org/1999/xlink" viewBox="0 0 214.8 268.82"><defs><style>.cls-1{stroke:#231f20;stroke-miterlimit:10;stroke-width:2px;fill:url(#New_Gradient_Swatch);}.cls-2{fill:#231f20;}</style><linearGradient id="New_Gradient_Swatch" x1="63.28" y1="176.31" x2="276.07" y2="176.31" gradientUnits="userSpaceOnUse"><stop offset="0.42" stop-color="#fff"/><stop offset="0.45" stop-color="#fafbfb"/><stop offset="0.53" stop-color="#efeff0"/><stop offset="0.66" stop-color="#e8e9ea"/><stop offset="1" stop-color="#e6e7e8"/></linearGradient></defs><path class="cls-1" d="M243.48,299.56l-68,9.77a37.65,37.65,0,0,1-10.81,0l-68.11-9.79A38,38,0,0,1,64,262.08L63.28,82.39a38,38,0,0,1,49-36.53h0l41.05,13.48a38,38,0,0,0,22.64.34l49.34-14.6,2-.6a38,38,0,0,1,48.78,36.44V262A38,38,0,0,1,243.48,299.56Z" transform="translate(-62.28 -41.9)"/><path class="cls-2" d="M74.23,112.07c7.38,8.81,20,11.22,30.73,13.1,6.08,1.06,12.2,1.93,18.22,3.29a73.41,73.41,0,0,1,8.24,2.29c.66.23,1.3.47,2,.73l.38.15c.44.18-.4-.17,0,0l1,.44a33.05,33.05,0,0,1,3.47,1.86c.5.31,1,.64,1.49,1,.15.11.75.56.3.21.3.23.59.47.88.71a22,22,0,0,1,2.53,2.58l.32.39c-.08-.09-.33-.46,0,0l.52.74c.37.54.71,1.1,1,1.67s.64,1.17.93,1.78l.39.86s.19.44.06.15.14.34.16.4c2.25,5.76,3,11.44,3.43,17.28,1,13.5,0,27.14,1.78,40.6.84,6.39,2.21,12.94,5.63,18.51,2,3.28,4.27,6,7.84,7.78,4.17,2,8.67,2.45,13.23,2.78q6,.42,12,.73c11.07.59,22.15,1,33.24,1.08,5.08,0,10.16,0,15.24-.28a59.37,59.37,0,0,0,11.13-1.32c3.58-.89,5.89-3.37,7.69-6.49a57.37,57.37,0,0,0,5.47-14.74c3-12.25,4.38-25.48,2.47-38a38.58,38.58,0,0,0-1.82-7.43,3.07,3.07,0,0,0-3.69-2.1,3,3,0,0,0-2.09,3.69,41.9,41.9,0,0,1,1.84,7.58l.06.42c-.08-.53,0,0,0,.06,0,.33.08.67.11,1q.12,1.11.21,2.22c.11,1.48.17,3,.2,4.45.05,3.16-.07,6.32-.32,9.46-.27,3.35-.58,5.9-1.11,9a87.07,87.07,0,0,1-4.26,16.51c-.2.54-.41,1.07-.63,1.6.23-.55,0,0-.12.26s-.25.55-.38.82a27.38,27.38,0,0,1-1.43,2.67c-.22.37-.46.73-.71,1.09-.15.2-.66.71-.05.08-.15.15-.27.34-.41.5s-.49.51-.74.75c-.09.09-.55.51-.12.12s0,0-.18.11l-.37.21c-.46.3.26-.09.26-.09a4.3,4.3,0,0,0-.74.25,16.62,16.62,0,0,1-1.85.45l-1,.18-.55.09-.24,0c-.6.1.58-.07.21,0-.88.09-1.76.2-2.64.28-4.59.42-9.21.53-13.82.57-11,.1-22-.26-33-.78-7.27-.34-14.57-.62-21.82-1.34a21.64,21.64,0,0,1-5-1.13,7.78,7.78,0,0,1-1.48-.64,18.68,18.68,0,0,1-1.67-1l-.66-.48c.46.35.06,0-.14-.14a11.57,11.57,0,0,1-1-1c-.13-.14-.24-.29-.37-.43-.45-.48.3.47.07.11s-.33-.48-.48-.73-.28-.5-.43-.75c-.56-.9-1.14-1.77-1.64-2.72-.22-.42-.43-.84-.63-1.28-.08-.17-.44-1-.24-.53a45.17,45.17,0,0,1-2.37-8.14c-.14-.7-.27-1.41-.38-2.11l-.18-1.07c0-.2-.16-1.15-.11-.76-.21-1.61-.37-3.21-.51-4.82-.27-3.26-.41-6.52-.5-9.78-.19-6.77-.16-13.53-.45-20.29-.47-11.54-1.41-25.26-9.73-34.17C139.14,125,126.7,122.82,116.07,121c-6-1-12-1.9-17.89-3.27a72.65,72.65,0,0,1-8.06-2.31c-.6-.22-1.2-.46-1.8-.69-.1,0-.54-.23,0,0l-.38-.16-1.1-.5a35.92,35.92,0,0,1-3.33-1.83c-.5-.32-1-.66-1.48-1s.09.1-.3-.22l-.68-.56a23.9,23.9,0,0,1-2.54-2.59,3,3,0,1,0-4.24,4.24Z" transform="translate(-62.28 -41.9)"/></svg>